<?xml version="1.0" encoding="utf-8"?>
<svg version="1.1" baseProfile="full"  width="392" height="392" viewBox="0 0 392 392"
		 xmlns="http://www.w3.org/2000/svg" xmlns:xlink="http://www.w3.org/1999/xlink" xmlns:ev="http://www.w3.org/2001/xml-events">
<desc></desc>
<rect width="392" height="392" fill="#ffffff" cx="0" cy="0" />
<defs>
<rect id="p" width="8" height="8" />
</defs>
<g fill="#000000">
<use x="32" y="32" xlink:href="#p" />
<use x="32" y="40" xlink:href="#p" />
<use x="32" y="48" xlink:href="#p" />
<use x="32" y="56" xlink:href="#p" />
<use x="32" y="64" xlink:href="#p" />
<use x="32" y="72" xlink:href="#p" />
<use x="32" y="80" xlink:href="#p" />
<use x="32" y="120" xlink:href="#p" />
<use x="32" y="128" xlink:href="#p" />
<use x="32" y="144" xlink:href="#p" />
<use x="32" y="152" xlink:href="#p" />
<use x="32" y="160" xlink:href="#p" />
<use x="32" y="192" xlink:href="#p" />
<use x="32" y="216" xlink:href="#p" />
<use x="32" y="224" xlink:href="#p" />
<use x="32" y="240" xlink:href="#p" />
<use x="32" y="248" xlink:href="#p" />
<use x="32" y="256" xlink:href="#p" />
<use x="32" y="272" xlink:href="#p" />
<use x="32" y="280" xlink:href="#p" />
<use x="32" y="304" xlink:href="#p" />
<use x="32" y="312" xlink:href="#p" />
<use x="32" y="320" xlink:href="#p" />
<use x="32" y="328" xlink:href="#p" />
<use x="32" y="336" xlink:href="#p" />
<use x="32" y="344" xlink:href="#p" />
<use x="32" y="352" xlink:href="#p" />
<use x="40" y="32" xlink:href="#p" />
<use x="40" y="80" xlink:href="#p" />
<use x="40" y="120" xlink:href="#p" />
<use x="40" y="160" xlink:href="#p" />
<use x="40" y="168" xlink:href="#p" />
<use x="40" y="176" xlink:href="#p" />
<use x="40" y="184" xlink:href="#p" />
<use x="40" y="192" xlink:href="#p" />
<use x="40" y="208" xlink:href="#p" />
<use x="40" y="224" xlink:href="#p" />
<use x="40" y="232" xlink:href="#p" />
<use x="40" y="240" xlink:href="#p" />
<use x="40" y="264" xlink:href="#p" />
<use x="40" y="272" xlink:href="#p" />
<use x="40" y="280" xlink:href="#p" />
<use x="40" y="304" xlink:href="#p" />
<use x="40" y="352" xlink:href="#p" />
<use x="48" y="32" xlink:href="#p" />
<use x="48" y="48" xlink:href="#p" />
<use x="48" y="56" xlink:href="#p" />
<use x="48" y="64" xlink:href="#p" />
<use x="48" y="80" xlink:href="#p" />
<use x="48" y="120" xlink:href="#p" />
<use x="48" y="128" xlink:href="#p" />
<use x="48" y="152" xlink:href="#p" />
<use x="48" y="176" xlink:href="#p" />
<use x="48" y="184" xlink:href="#p" />
<use x="48" y="208" xlink:href="#p" />
<use x="48" y="232" xlink:href="#p" />
<use x="48" y="240" xlink:href="#p" />
<use x="48" y="248" xlink:href="#p" />
<use x="48" y="256" xlink:href="#p" />
<use x="48" y="264" xlink:href="#p" />
<use x="48" y="272" xlink:href="#p" />
<use x="48" y="280" xlink:href="#p" />
<use x="48" y="288" xlink:href="#p" />
<use x="48" y="304" xlink:href="#p" />
<use x="48" y="320" xlink:href="#p" />
<use x="48" y="328" xlink:href="#p" />
<use x="48" y="336" xlink:href="#p" />
<use x="48" y="352" xlink:href="#p" />
<use x="56" y="32" xlink:href="#p" />
<use x="56" y="48" xlink:href="#p" />
<use x="56" y="56" xlink:href="#p" />
<use x="56" y="64" xlink:href="#p" />
<use x="56" y="80" xlink:href="#p" />
<use x="56" y="104" xlink:href="#p" />
<use x="56" y="112" xlink:href="#p" />
<use x="56" y="128" xlink:href="#p" />
<use x="56" y="152" xlink:href="#p" />
<use x="56" y="160" xlink:href="#p" />
<use x="56" y="176" xlink:href="#p" />
<use x="56" y="184" xlink:href="#p" />
<use x="56" y="200" xlink:href="#p" />
<use x="56" y="208" xlink:href="#p" />
<use x="56" y="216" xlink:href="#p" />
<use x="56" y="224" xlink:href="#p" />
<use x="56" y="232" xlink:href="#p" />
<use x="56" y="240" xlink:href="#p" />
<use x="56" y="256" xlink:href="#p" />
<use x="56" y="272" xlink:href="#p" />
<use x="56" y="280" xlink:href="#p" />
<use x="56" y="304" xlink:href="#p" />
<use x="56" y="320" xlink:href="#p" />
<use x="56" y="328" xlink:href="#p" />
<use x="56" y="336" xlink:href="#p" />
<use x="56" y="352" xlink:href="#p" />
<use x="64" y="32" xlink:href="#p" />
<use x="64" y="48" xlink:href="#p" />
<use x="64" y="56" xlink:href="#p" />
<use x="64" y="64" xlink:href="#p" />
<use x="64" y="80" xlink:href="#p" />
<use x="64" y="96" xlink:href="#p" />
<use x="64" y="112" xlink:href="#p" />
<use x="64" y="120" xlink:href="#p" />
<use x="64" y="136" xlink:href="#p" />
<use x="64" y="144" xlink:href="#p" />
<use x="64" y="160" xlink:href="#p" />
<use x="64" y="176" xlink:href="#p" />
<use x="64" y="192" xlink:href="#p" />
<use x="64" y="200" xlink:href="#p" />
<use x="64" y="208" xlink:href="#p" />
<use x="64" y="224" xlink:href="#p" />
<use x="64" y="232" xlink:href="#p" />
<use x="64" y="248" xlink:href="#p" />
<use x="64" y="264" xlink:href="#p" />
<use x="64" y="280" xlink:href="#p" />
<use x="64" y="304" xlink:href="#p" />
<use x="64" y="320" xlink:href="#p" />
<use x="64" y="328" xlink:href="#p" />
<use x="64" y="336" xlink:href="#p" />
<use x="64" y="352" xlink:href="#p" />
<use x="72" y="32" xlink:href="#p" />
<use x="72" y="80" xlink:href="#p" />
<use x="72" y="96" xlink:href="#p" />
<use x="72" y="104" xlink:href="#p" />
<use x="72" y="120" xlink:href="#p" />
<use x="72" y="144" xlink:href="#p" />
<use x="72" y="152" xlink:href="#p" />
<use x="72" y="184" xlink:href="#p" />
<use x="72" y="200" xlink:href="#p" />
<use x="72" y="208" xlink:href="#p" />
<use x="72" y="216" xlink:href="#p" />
<use x="72" y="224" xlink:href="#p" />
<use x="72" y="232" xlink:href="#p" />
<use x="72" y="256" xlink:href="#p" />
<use x="72" y="272" xlink:href="#p" />
<use x="72" y="280" xlink:href="#p" />
<use x="72" y="288" xlink:href="#p" />
<use x="72" y="304" xlink:href="#p" />
<use x="72" y="352" xlink:href="#p" />
<use x="80" y="32" xlink:href="#p" />
<use x="80" y="40" xlink:href="#p" />
<use x="80" y="48" xlink:href="#p" />
<use x="80" y="56" xlink:href="#p" />
<use x="80" y="64" xlink:href="#p" />
<use x="80" y="72" xlink:href="#p" />
<use x="80" y="80" xlink:href="#p" />
<use x="80" y="96" xlink:href="#p" />
<use x="80" y="112" xlink:href="#p" />
<use x="80" y="128" xlink:href="#p" />
<use x="80" y="144" xlink:href="#p" />
<use x="80" y="160" xlink:href="#p" />
<use x="80" y="176" xlink:href="#p" />
<use x="80" y="192" xlink:href="#p" />
<use x="80" y="208" xlink:href="#p" />
<use x="80" y="224" xlink:href="#p" />
<use x="80" y="240" xlink:href="#p" />
<use x="80" y="256" xlink:href="#p" />
<use x="80" y="272" xlink:href="#p" />
<use x="80" y="288" xlink:href="#p" />
<use x="80" y="304" xlink:href="#p" />
<use x="80" y="312" xlink:href="#p" />
<use x="80" y="320" xlink:href="#p" />
<use x="80" y="328" xlink:href="#p" />
<use x="80" y="336" xlink:href="#p" />
<use x="80" y="344" xlink:href="#p" />
<use x="80" y="352" xlink:href="#p" />
<use x="88" y="96" xlink:href="#p" />
<use x="88" y="104" xlink:href="#p" />
<use x="88" y="112" xlink:href="#p" />
<use x="88" y="144" xlink:href="#p" />
<use x="88" y="168" xlink:href="#p" />
<use x="88" y="200" xlink:href="#p" />
<use x="88" y="224" xlink:href="#p" />
<use x="88" y="240" xlink:href="#p" />
<use x="88" y="248" xlink:href="#p" />
<use x="88" y="256" xlink:href="#p" />
<use x="88" y="264" xlink:href="#p" />
<use x="88" y="280" xlink:href="#p" />
<use x="96" y="40" xlink:href="#p" />
<use x="96" y="72" xlink:href="#p" />
<use x="96" y="80" xlink:href="#p" />
<use x="96" y="88" xlink:href="#p" />
<use x="96" y="104" xlink:href="#p" />
<use x="96" y="128" xlink:href="#p" />
<use x="96" y="152" xlink:href="#p" />
<use x="96" y="168" xlink:href="#p" />
<use x="96" y="176" xlink:href="#p" />
<use x="96" y="216" xlink:href="#p" />
<use x="96" y="232" xlink:href="#p" />
<use x="96" y="240" xlink:href="#p" />
<use x="96" y="288" xlink:href="#p" />
<use x="96" y="296" xlink:href="#p" />
<use x="96" y="304" xlink:href="#p" />
<use x="96" y="312" xlink:href="#p" />
<use x="96" y="320" xlink:href="#p" />
<use x="104" y="32" xlink:href="#p" />
<use x="104" y="72" xlink:href="#p" />
<use x="104" y="96" xlink:href="#p" />
<use x="104" y="136" xlink:href="#p" />
<use x="104" y="144" xlink:href="#p" />
<use x="104" y="152" xlink:href="#p" />
<use x="104" y="168" xlink:href="#p" />
<use x="104" y="192" xlink:href="#p" />
<use x="104" y="224" xlink:href="#p" />
<use x="104" y="240" xlink:href="#p" />
<use x="104" y="256" xlink:href="#p" />
<use x="104" y="288" xlink:href="#p" />
<use x="104" y="296" xlink:href="#p" />
<use x="104" y="312" xlink:href="#p" />
<use x="104" y="344" xlink:href="#p" />
<use x="112" y="48" xlink:href="#p" />
<use x="112" y="56" xlink:href="#p" />
<use x="112" y="64" xlink:href="#p" />
<use x="112" y="80" xlink:href="#p" />
<use x="112" y="112" xlink:href="#p" />
<use x="112" y="128" xlink:href="#p" />
<use x="112" y="152" xlink:href="#p" />
<use x="112" y="160" xlink:href="#p" />
<use x="112" y="168" xlink:href="#p" />
<use x="112" y="176" xlink:href="#p" />
<use x="112" y="200" xlink:href="#p" />
<use x="112" y="208" xlink:href="#p" />
<use x="112" y="216" xlink:href="#p" />
<use x="112" y="232" xlink:href="#p" />
<use x="112" y="240" xlink:href="#p" />
<use x="112" y="248" xlink:href="#p" />
<use x="112" y="256" xlink:href="#p" />
<use x="112" y="280" xlink:href="#p" />
<use x="112" y="296" xlink:href="#p" />
<use x="112" y="304" xlink:href="#p" />
<use x="112" y="320" xlink:href="#p" />
<use x="112" y="336" xlink:href="#p" />
<use x="112" y="344" xlink:href="#p" />
<use x="112" y="352" xlink:href="#p" />
<use x="120" y="32" xlink:href="#p" />
<use x="120" y="64" xlink:href="#p" />
<use x="120" y="88" xlink:href="#p" />
<use x="120" y="96" xlink:href="#p" />
<use x="120" y="112" xlink:href="#p" />
<use x="120" y="120" xlink:href="#p" />
<use x="120" y="136" xlink:href="#p" />
<use x="120" y="152" xlink:href="#p" />
<use x="120" y="160" xlink:href="#p" />
<use x="120" y="184" xlink:href="#p" />
<use x="120" y="192" xlink:href="#p" />
<use x="120" y="200" xlink:href="#p" />
<use x="120" y="208" xlink:href="#p" />
<use x="120" y="248" xlink:href="#p" />
<use x="120" y="256" xlink:href="#p" />
<use x="120" y="288" xlink:href="#p" />
<use x="120" y="344" xlink:href="#p" />
<use x="128" y="48" xlink:href="#p" />
<use x="128" y="56" xlink:href="#p" />
<use x="128" y="80" xlink:href="#p" />
<use x="128" y="88" xlink:href="#p" />
<use x="128" y="96" xlink:href="#p" />
<use x="128" y="152" xlink:href="#p" />
<use x="128" y="160" xlink:href="#p" />
<use x="128" y="176" xlink:href="#p" />
<use x="128" y="192" xlink:href="#p" />
<use x="128" y="208" xlink:href="#p" />
<use x="128" y="224" xlink:href="#p" />
<use x="128" y="264" xlink:href="#p" />
<use x="128" y="272" xlink:href="#p" />
<use x="128" y="280" xlink:href="#p" />
<use x="128" y="288" xlink:href="#p" />
<use x="128" y="320" xlink:href="#p" />
<use x="128" y="336" xlink:href="#p" />
<use x="128" y="344" xlink:href="#p" />
<use x="128" y="352" xlink:href="#p" />
<use x="136" y="40" xlink:href="#p" />
<use x="136" y="48" xlink:href="#p" />
<use x="136" y="56" xlink:href="#p" />
<use x="136" y="64" xlink:href="#p" />
<use x="136" y="72" xlink:href="#p" />
<use x="136" y="96" xlink:href="#p" />
<use x="136" y="120" xlink:href="#p" />
<use x="136" y="128" xlink:href="#p" />
<use x="136" y="168" xlink:href="#p" />
<use x="136" y="176" xlink:href="#p" />
<use x="136" y="184" xlink:href="#p" />
<use x="136" y="192" xlink:href="#p" />
<use x="136" y="208" xlink:href="#p" />
<use x="136" y="216" xlink:href="#p" />
<use x="136" y="232" xlink:href="#p" />
<use x="136" y="256" xlink:href="#p" />
<use x="136" y="264" xlink:href="#p" />
<use x="136" y="296" xlink:href="#p" />
<use x="136" y="304" xlink:href="#p" />
<use x="136" y="312" xlink:href="#p" />
<use x="136" y="328" xlink:href="#p" />
<use x="144" y="32" xlink:href="#p" />
<use x="144" y="40" xlink:href="#p" />
<use x="144" y="64" xlink:href="#p" />
<use x="144" y="72" xlink:href="#p" />
<use x="144" y="80" xlink:href="#p" />
<use x="144" y="88" xlink:href="#p" />
<use x="144" y="96" xlink:href="#p" />
<use x="144" y="120" xlink:href="#p" />
<use x="144" y="144" xlink:href="#p" />
<use x="144" y="160" xlink:href="#p" />
<use x="144" y="184" xlink:href="#p" />
<use x="144" y="224" xlink:href="#p" />
<use x="144" y="240" xlink:href="#p" />
<use x="144" y="248" xlink:href="#p" />
<use x="144" y="264" xlink:href="#p" />
<use x="144" y="272" xlink:href="#p" />
<use x="144" y="288" xlink:href="#p" />
<use x="144" y="304" xlink:href="#p" />
<use x="144" y="312" xlink:href="#p" />
<use x="144" y="336" xlink:href="#p" />
<use x="144" y="352" xlink:href="#p" />
<use x="152" y="104" xlink:href="#p" />
<use x="152" y="112" xlink:href="#p" />
<use x="152" y="120" xlink:href="#p" />
<use x="152" y="144" xlink:href="#p" />
<use x="152" y="152" xlink:href="#p" />
<use x="152" y="168" xlink:href="#p" />
<use x="152" y="176" xlink:href="#p" />
<use x="152" y="200" xlink:href="#p" />
<use x="152" y="224" xlink:href="#p" />
<use x="152" y="232" xlink:href="#p" />
<use x="152" y="240" xlink:href="#p" />
<use x="152" y="248" xlink:href="#p" />
<use x="152" y="272" xlink:href="#p" />
<use x="152" y="288" xlink:href="#p" />
<use x="152" y="296" xlink:href="#p" />
<use x="152" y="328" xlink:href="#p" />
<use x="152" y="344" xlink:href="#p" />
<use x="152" y="352" xlink:href="#p" />
<use x="160" y="48" xlink:href="#p" />
<use x="160" y="64" xlink:href="#p" />
<use x="160" y="80" xlink:href="#p" />
<use x="160" y="88" xlink:href="#p" />
<use x="160" y="96" xlink:href="#p" />
<use x="160" y="104" xlink:href="#p" />
<use x="160" y="128" xlink:href="#p" />
<use x="160" y="152" xlink:href="#p" />
<use x="160" y="160" xlink:href="#p" />
<use x="160" y="200" xlink:href="#p" />
<use x="160" y="216" xlink:href="#p" />
<use x="160" y="224" xlink:href="#p" />
<use x="160" y="240" xlink:href="#p" />
<use x="160" y="248" xlink:href="#p" />
<use x="160" y="256" xlink:href="#p" />
<use x="160" y="264" xlink:href="#p" />
<use x="160" y="280" xlink:href="#p" />
<use x="160" y="288" xlink:href="#p" />
<use x="160" y="296" xlink:href="#p" />
<use x="160" y="320" xlink:href="#p" />
<use x="168" y="40" xlink:href="#p" />
<use x="168" y="64" xlink:href="#p" />
<use x="168" y="88" xlink:href="#p" />
<use x="168" y="112" xlink:href="#p" />
<use x="168" y="128" xlink:href="#p" />
<use x="168" y="136" xlink:href="#p" />
<use x="168" y="144" xlink:href="#p" />
<use x="168" y="168" xlink:href="#p" />
<use x="168" y="176" xlink:href="#p" />
<use x="168" y="192" xlink:href="#p" />
<use x="168" y="200" xlink:href="#p" />
<use x="168" y="224" xlink:href="#p" />
<use x="168" y="248" xlink:href="#p" />
<use x="168" y="272" xlink:href="#p" />
<use x="168" y="280" xlink:href="#p" />
<use x="168" y="328" xlink:href="#p" />
<use x="168" y="336" xlink:href="#p" />
<use x="168" y="352" xlink:href="#p" />
<use x="176" y="32" xlink:href="#p" />
<use x="176" y="40" xlink:href="#p" />
<use x="176" y="56" xlink:href="#p" />
<use x="176" y="64" xlink:href="#p" />
<use x="176" y="80" xlink:href="#p" />
<use x="176" y="104" xlink:href="#p" />
<use x="176" y="136" xlink:href="#p" />
<use x="176" y="144" xlink:href="#p" />
<use x="176" y="160" xlink:href="#p" />
<use x="176" y="184" xlink:href="#p" />
<use x="176" y="200" xlink:href="#p" />
<use x="176" y="208" xlink:href="#p" />
<use x="176" y="232" xlink:href="#p" />
<use x="176" y="256" xlink:href="#p" />
<use x="176" y="280" xlink:href="#p" />
<use x="176" y="296" xlink:href="#p" />
<use x="176" y="304" xlink:href="#p" />
<use x="176" y="312" xlink:href="#p" />
<use x="176" y="320" xlink:href="#p" />
<use x="176" y="344" xlink:href="#p" />
<use x="176" y="352" xlink:href="#p" />
<use x="184" y="32" xlink:href="#p" />
<use x="184" y="56" xlink:href="#p" />
<use x="184" y="64" xlink:href="#p" />
<use x="184" y="88" xlink:href="#p" />
<use x="184" y="96" xlink:href="#p" />
<use x="184" y="104" xlink:href="#p" />
<use x="184" y="112" xlink:href="#p" />
<use x="184" y="128" xlink:href="#p" />
<use x="184" y="136" xlink:href="#p" />
<use x="184" y="144" xlink:href="#p" />
<use x="184" y="152" xlink:href="#p" />
<use x="184" y="160" xlink:href="#p" />
<use x="184" y="176" xlink:href="#p" />
<use x="184" y="184" xlink:href="#p" />
<use x="184" y="216" xlink:href="#p" />
<use x="184" y="264" xlink:href="#p" />
<use x="184" y="272" xlink:href="#p" />
<use x="184" y="288" xlink:href="#p" />
<use x="184" y="296" xlink:href="#p" />
<use x="184" y="304" xlink:href="#p" />
<use x="184" y="328" xlink:href="#p" />
<use x="192" y="48" xlink:href="#p" />
<use x="192" y="64" xlink:href="#p" />
<use x="192" y="72" xlink:href="#p" />
<use x="192" y="80" xlink:href="#p" />
<use x="192" y="88" xlink:href="#p" />
<use x="192" y="112" xlink:href="#p" />
<use x="192" y="144" xlink:href="#p" />
<use x="192" y="152" xlink:href="#p" />
<use x="192" y="168" xlink:href="#p" />
<use x="192" y="184" xlink:href="#p" />
<use x="192" y="200" xlink:href="#p" />
<use x="192" y="232" xlink:href="#p" />
<use x="192" y="256" xlink:href="#p" />
<use x="192" y="272" xlink:href="#p" />
<use x="192" y="288" xlink:href="#p" />
<use x="192" y="296" xlink:href="#p" />
<use x="192" y="304" xlink:href="#p" />
<use x="192" y="312" xlink:href="#p" />
<use x="192" y="320" xlink:href="#p" />
<use x="192" y="328" xlink:href="#p" />
<use x="192" y="344" xlink:href="#p" />
<use x="200" y="32" xlink:href="#p" />
<use x="200" y="40" xlink:href="#p" />
<use x="200" y="56" xlink:href="#p" />
<use x="200" y="72" xlink:href="#p" />
<use x="200" y="104" xlink:href="#p" />
<use x="200" y="128" xlink:href="#p" />
<use x="200" y="144" xlink:href="#p" />
<use x="200" y="152" xlink:href="#p" />
<use x="200" y="168" xlink:href="#p" />
<use x="200" y="184" xlink:href="#p" />
<use x="200" y="224" xlink:href="#p" />
<use x="200" y="240" xlink:href="#p" />
<use x="200" y="248" xlink:href="#p" />
<use x="200" y="256" xlink:href="#p" />
<use x="200" y="328" xlink:href="#p" />
<use x="208" y="32" xlink:href="#p" />
<use x="208" y="56" xlink:href="#p" />
<use x="208" y="80" xlink:href="#p" />
<use x="208" y="88" xlink:href="#p" />
<use x="208" y="120" xlink:href="#p" />
<use x="208" y="128" xlink:href="#p" />
<use x="208" y="136" xlink:href="#p" />
<use x="208" y="144" xlink:href="#p" />
<use x="208" y="160" xlink:href="#p" />
<use x="208" y="168" xlink:href="#p" />
<use x="208" y="176" xlink:href="#p" />
<use x="208" y="184" xlink:href="#p" />
<use x="208" y="192" xlink:href="#p" />
<use x="208" y="256" xlink:href="#p" />
<use x="208" y="264" xlink:href="#p" />
<use x="208" y="280" xlink:href="#p" />
<use x="208" y="288" xlink:href="#p" />
<use x="208" y="304" xlink:href="#p" />
<use x="208" y="312" xlink:href="#p" />
<use x="208" y="320" xlink:href="#p" />
<use x="208" y="328" xlink:href="#p" />
<use x="208" y="336" xlink:href="#p" />
<use x="208" y="344" xlink:href="#p" />
<use x="216" y="48" xlink:href="#p" />
<use x="216" y="56" xlink:href="#p" />
<use x="216" y="64" xlink:href="#p" />
<use x="216" y="88" xlink:href="#p" />
<use x="216" y="104" xlink:href="#p" />
<use x="216" y="144" xlink:href="#p" />
<use x="216" y="160" xlink:href="#p" />
<use x="216" y="184" xlink:href="#p" />
<use x="216" y="192" xlink:href="#p" />
<use x="216" y="200" xlink:href="#p" />
<use x="216" y="224" xlink:href="#p" />
<use x="216" y="280" xlink:href="#p" />
<use x="216" y="288" xlink:href="#p" />
<use x="216" y="304" xlink:href="#p" />
<use x="216" y="312" xlink:href="#p" />
<use x="216" y="336" xlink:href="#p" />
<use x="216" y="352" xlink:href="#p" />
<use x="224" y="80" xlink:href="#p" />
<use x="224" y="96" xlink:href="#p" />
<use x="224" y="120" xlink:href="#p" />
<use x="224" y="128" xlink:href="#p" />
<use x="224" y="136" xlink:href="#p" />
<use x="224" y="144" xlink:href="#p" />
<use x="224" y="176" xlink:href="#p" />
<use x="224" y="192" xlink:href="#p" />
<use x="224" y="208" xlink:href="#p" />
<use x="224" y="216" xlink:href="#p" />
<use x="224" y="224" xlink:href="#p" />
<use x="224" y="256" xlink:href="#p" />
<use x="224" y="296" xlink:href="#p" />
<use x="224" y="304" xlink:href="#p" />
<use x="224" y="344" xlink:href="#p" />
<use x="224" y="352" xlink:href="#p" />
<use x="232" y="32" xlink:href="#p" />
<use x="232" y="40" xlink:href="#p" />
<use x="232" y="88" xlink:href="#p" />
<use x="232" y="96" xlink:href="#p" />
<use x="232" y="104" xlink:href="#p" />
<use x="232" y="128" xlink:href="#p" />
<use x="232" y="136" xlink:href="#p" />
<use x="232" y="144" xlink:href="#p" />
<use x="232" y="160" xlink:href="#p" />
<use x="232" y="168" xlink:href="#p" />
<use x="232" y="176" xlink:href="#p" />
<use x="232" y="200" xlink:href="#p" />
<use x="232" y="208" xlink:href="#p" />
<use x="232" y="216" xlink:href="#p" />
<use x="232" y="248" xlink:href="#p" />
<use x="232" y="280" xlink:href="#p" />
<use x="232" y="288" xlink:href="#p" />
<use x="232" y="304" xlink:href="#p" />
<use x="232" y="312" xlink:href="#p" />
<use x="232" y="336" xlink:href="#p" />
<use x="232" y="344" xlink:href="#p" />
<use x="240" y="40" xlink:href="#p" />
<use x="240" y="48" xlink:href="#p" />
<use x="240" y="80" xlink:href="#p" />
<use x="240" y="136" xlink:href="#p" />
<use x="240" y="160" xlink:href="#p" />
<use x="240" y="168" xlink:href="#p" />
<use x="240" y="192" xlink:href="#p" />
<use x="240" y="216" xlink:href="#p" />
<use x="240" y="240" xlink:href="#p" />
<use x="240" y="248" xlink:href="#p" />
<use x="240" y="264" xlink:href="#p" />
<use x="240" y="272" xlink:href="#p" />
<use x="240" y="280" xlink:href="#p" />
<use x="240" y="288" xlink:href="#p" />
<use x="240" y="304" xlink:href="#p" />
<use x="240" y="312" xlink:href="#p" />
<use x="240" y="352" xlink:href="#p" />
<use x="248" y="32" xlink:href="#p" />
<use x="248" y="64" xlink:href="#p" />
<use x="248" y="96" xlink:href="#p" />
<use x="248" y="104" xlink:href="#p" />
<use x="248" y="112" xlink:href="#p" />
<use x="248" y="128" xlink:href="#p" />
<use x="248" y="160" xlink:href="#p" />
<use x="248" y="168" xlink:href="#p" />
<use x="248" y="176" xlink:href="#p" />
<use x="248" y="184" xlink:href="#p" />
<use x="248" y="192" xlink:href="#p" />
<use x="248" y="200" xlink:href="#p" />
<use x="248" y="208" xlink:href="#p" />
<use x="248" y="216" xlink:href="#p" />
<use x="248" y="224" xlink:href="#p" />
<use x="248" y="232" xlink:href="#p" />
<use x="248" y="240" xlink:href="#p" />
<use x="248" y="248" xlink:href="#p" />
<use x="248" y="272" xlink:href="#p" />
<use x="248" y="280" xlink:href="#p" />
<use x="248" y="296" xlink:href="#p" />
<use x="248" y="304" xlink:href="#p" />
<use x="248" y="312" xlink:href="#p" />
<use x="248" y="320" xlink:href="#p" />
<use x="248" y="328" xlink:href="#p" />
<use x="248" y="336" xlink:href="#p" />
<use x="248" y="352" xlink:href="#p" />
<use x="256" y="32" xlink:href="#p" />
<use x="256" y="48" xlink:href="#p" />
<use x="256" y="56" xlink:href="#p" />
<use x="256" y="64" xlink:href="#p" />
<use x="256" y="72" xlink:href="#p" />
<use x="256" y="80" xlink:href="#p" />
<use x="256" y="96" xlink:href="#p" />
<use x="256" y="104" xlink:href="#p" />
<use x="256" y="112" xlink:href="#p" />
<use x="256" y="136" xlink:href="#p" />
<use x="256" y="144" xlink:href="#p" />
<use x="256" y="160" xlink:href="#p" />
<use x="256" y="168" xlink:href="#p" />
<use x="256" y="176" xlink:href="#p" />
<use x="256" y="184" xlink:href="#p" />
<use x="256" y="232" xlink:href="#p" />
<use x="256" y="256" xlink:href="#p" />
<use x="256" y="280" xlink:href="#p" />
<use x="256" y="296" xlink:href="#p" />
<use x="256" y="312" xlink:href="#p" />
<use x="256" y="328" xlink:href="#p" />
<use x="256" y="352" xlink:href="#p" />
<use x="264" y="32" xlink:href="#p" />
<use x="264" y="40" xlink:href="#p" />
<use x="264" y="56" xlink:href="#p" />
<use x="264" y="72" xlink:href="#p" />
<use x="264" y="88" xlink:href="#p" />
<use x="264" y="96" xlink:href="#p" />
<use x="264" y="104" xlink:href="#p" />
<use x="264" y="120" xlink:href="#p" />
<use x="264" y="128" xlink:href="#p" />
<use x="264" y="136" xlink:href="#p" />
<use x="264" y="152" xlink:href="#p" />
<use x="264" y="160" xlink:href="#p" />
<use x="264" y="176" xlink:href="#p" />
<use x="264" y="184" xlink:href="#p" />
<use x="264" y="216" xlink:href="#p" />
<use x="264" y="224" xlink:href="#p" />
<use x="264" y="248" xlink:href="#p" />
<use x="264" y="256" xlink:href="#p" />
<use x="264" y="280" xlink:href="#p" />
<use x="264" y="288" xlink:href="#p" />
<use x="264" y="296" xlink:href="#p" />
<use x="264" y="328" xlink:href="#p" />
<use x="264" y="344" xlink:href="#p" />
<use x="264" y="352" xlink:href="#p" />
<use x="272" y="32" xlink:href="#p" />
<use x="272" y="56" xlink:href="#p" />
<use x="272" y="64" xlink:href="#p" />
<use x="272" y="80" xlink:href="#p" />
<use x="272" y="88" xlink:href="#p" />
<use x="272" y="112" xlink:href="#p" />
<use x="272" y="136" xlink:href="#p" />
<use x="272" y="144" xlink:href="#p" />
<use x="272" y="152" xlink:href="#p" />
<use x="272" y="168" xlink:href="#p" />
<use x="272" y="184" xlink:href="#p" />
<use x="272" y="192" xlink:href="#p" />
<use x="272" y="208" xlink:href="#p" />
<use x="272" y="216" xlink:href="#p" />
<use x="272" y="224" xlink:href="#p" />
<use x="272" y="232" xlink:href="#p" />
<use x="272" y="248" xlink:href="#p" />
<use x="272" y="264" xlink:href="#p" />
<use x="272" y="296" xlink:href="#p" />
<use x="272" y="304" xlink:href="#p" />
<use x="272" y="328" xlink:href="#p" />
<use x="272" y="336" xlink:href="#p" />
<use x="280" y="40" xlink:href="#p" />
<use x="280" y="56" xlink:href="#p" />
<use x="280" y="72" xlink:href="#p" />
<use x="280" y="120" xlink:href="#p" />
<use x="280" y="128" xlink:href="#p" />
<use x="280" y="136" xlink:href="#p" />
<use x="280" y="160" xlink:href="#p" />
<use x="280" y="192" xlink:href="#p" />
<use x="280" y="224" xlink:href="#p" />
<use x="280" y="248" xlink:href="#p" />
<use x="280" y="264" xlink:href="#p" />
<use x="280" y="272" xlink:href="#p" />
<use x="280" y="280" xlink:href="#p" />
<use x="280" y="304" xlink:href="#p" />
<use x="280" y="320" xlink:href="#p" />
<use x="280" y="328" xlink:href="#p" />
<use x="280" y="344" xlink:href="#p" />
<use x="288" y="32" xlink:href="#p" />
<use x="288" y="40" xlink:href="#p" />
<use x="288" y="64" xlink:href="#p" />
<use x="288" y="80" xlink:href="#p" />
<use x="288" y="112" xlink:href="#p" />
<use x="288" y="120" xlink:href="#p" />
<use x="288" y="136" xlink:href="#p" />
<use x="288" y="144" xlink:href="#p" />
<use x="288" y="168" xlink:href="#p" />
<use x="288" y="176" xlink:href="#p" />
<use x="288" y="216" xlink:href="#p" />
<use x="288" y="240" xlink:href="#p" />
<use x="288" y="248" xlink:href="#p" />
<use x="288" y="256" xlink:href="#p" />
<use x="288" y="280" xlink:href="#p" />
<use x="288" y="288" xlink:href="#p" />
<use x="288" y="296" xlink:href="#p" />
<use x="288" y="304" xlink:href="#p" />
<use x="288" y="312" xlink:href="#p" />
<use x="288" y="320" xlink:href="#p" />
<use x="288" y="328" xlink:href="#p" />
<use x="288" y="344" xlink:href="#p" />
<use x="288" y="352" xlink:href="#p" />
<use x="296" y="104" xlink:href="#p" />
<use x="296" y="120" xlink:href="#p" />
<use x="296" y="128" xlink:href="#p" />
<use x="296" y="144" xlink:href="#p" />
<use x="296" y="152" xlink:href="#p" />
<use x="296" y="176" xlink:href="#p" />
<use x="296" y="184" xlink:href="#p" />
<use x="296" y="192" xlink:href="#p" />
<use x="296" y="208" xlink:href="#p" />
<use x="296" y="216" xlink:href="#p" />
<use x="296" y="232" xlink:href="#p" />
<use x="296" y="240" xlink:href="#p" />
<use x="296" y="264" xlink:href="#p" />
<use x="296" y="288" xlink:href="#p" />
<use x="296" y="320" xlink:href="#p" />
<use x="296" y="336" xlink:href="#p" />
<use x="296" y="344" xlink:href="#p" />
<use x="296" y="352" xlink:href="#p" />
<use x="304" y="32" xlink:href="#p" />
<use x="304" y="40" xlink:href="#p" />
<use x="304" y="48" xlink:href="#p" />
<use x="304" y="56" xlink:href="#p" />
<use x="304" y="64" xlink:href="#p" />
<use x="304" y="72" xlink:href="#p" />
<use x="304" y="80" xlink:href="#p" />
<use x="304" y="96" xlink:href="#p" />
<use x="304" y="104" xlink:href="#p" />
<use x="304" y="128" xlink:href="#p" />
<use x="304" y="168" xlink:href="#p" />
<use x="304" y="176" xlink:href="#p" />
<use x="304" y="200" xlink:href="#p" />
<use x="304" y="208" xlink:href="#p" />
<use x="304" y="232" xlink:href="#p" />
<use x="304" y="240" xlink:href="#p" />
<use x="304" y="248" xlink:href="#p" />
<use x="304" y="288" xlink:href="#p" />
<use x="304" y="304" xlink:href="#p" />
<use x="304" y="320" xlink:href="#p" />
<use x="312" y="32" xlink:href="#p" />
<use x="312" y="80" xlink:href="#p" />
<use x="312" y="96" xlink:href="#p" />
<use x="312" y="128" xlink:href="#p" />
<use x="312" y="136" xlink:href="#p" />
<use x="312" y="160" xlink:href="#p" />
<use x="312" y="176" xlink:href="#p" />
<use x="312" y="184" xlink:href="#p" />
<use x="312" y="224" xlink:href="#p" />
<use x="312" y="232" xlink:href="#p" />
<use x="312" y="248" xlink:href="#p" />
<use x="312" y="256" xlink:href="#p" />
<use x="312" y="264" xlink:href="#p" />
<use x="312" y="280" xlink:href="#p" />
<use x="312" y="288" xlink:href="#p" />
<use x="312" y="320" xlink:href="#p" />
<use x="312" y="328" xlink:href="#p" />
<use x="312" y="344" xlink:href="#p" />
<use x="312" y="352" xlink:href="#p" />
<use x="320" y="32" xlink:href="#p" />
<use x="320" y="48" xlink:href="#p" />
<use x="320" y="56" xlink:href="#p" />
<use x="320" y="64" xlink:href="#p" />
<use x="320" y="80" xlink:href="#p" />
<use x="320" y="104" xlink:href="#p" />
<use x="320" y="112" xlink:href="#p" />
<use x="320" y="120" xlink:href="#p" />
<use x="320" y="136" xlink:href="#p" />
<use x="320" y="168" xlink:href="#p" />
<use x="320" y="192" xlink:href="#p" />
<use x="320" y="200" xlink:href="#p" />
<use x="320" y="208" xlink:href="#p" />
<use x="320" y="224" xlink:href="#p" />
<use x="320" y="232" xlink:href="#p" />
<use x="320" y="240" xlink:href="#p" />
<use x="320" y="248" xlink:href="#p" />
<use x="320" y="264" xlink:href="#p" />
<use x="320" y="272" xlink:href="#p" />
<use x="320" y="288" xlink:href="#p" />
<use x="320" y="296" xlink:href="#p" />
<use x="320" y="304" xlink:href="#p" />
<use x="320" y="312" xlink:href="#p" />
<use x="320" y="320" xlink:href="#p" />
<use x="320" y="352" xlink:href="#p" />
<use x="328" y="32" xlink:href="#p" />
<use x="328" y="48" xlink:href="#p" />
<use x="328" y="56" xlink:href="#p" />
<use x="328" y="64" xlink:href="#p" />
<use x="328" y="80" xlink:href="#p" />
<use x="328" y="104" xlink:href="#p" />
<use x="328" y="120" xlink:href="#p" />
<use x="328" y="136" xlink:href="#p" />
<use x="328" y="144" xlink:href="#p" />
<use x="328" y="152" xlink:href="#p" />
<use x="328" y="160" xlink:href="#p" />
<use x="328" y="176" xlink:href="#p" />
<use x="328" y="184" xlink:href="#p" />
<use x="328" y="192" xlink:href="#p" />
<use x="328" y="200" xlink:href="#p" />
<use x="328" y="208" xlink:href="#p" />
<use x="328" y="216" xlink:href="#p" />
<use x="328" y="248" xlink:href="#p" />
<use x="328" y="272" xlink:href="#p" />
<use x="328" y="280" xlink:href="#p" />
<use x="328" y="288" xlink:href="#p" />
<use x="328" y="304" xlink:href="#p" />
<use x="328" y="312" xlink:href="#p" />
<use x="328" y="320" xlink:href="#p" />
<use x="328" y="344" xlink:href="#p" />
<use x="328" y="352" xlink:href="#p" />
<use x="336" y="32" xlink:href="#p" />
<use x="336" y="48" xlink:href="#p" />
<use x="336" y="56" xlink:href="#p" />
<use x="336" y="64" xlink:href="#p" />
<use x="336" y="80" xlink:href="#p" />
<use x="336" y="136" xlink:href="#p" />
<use x="336" y="144" xlink:href="#p" />
<use x="336" y="168" xlink:href="#p" />
<use x="336" y="200" xlink:href="#p" />
<use x="336" y="208" xlink:href="#p" />
<use x="336" y="232" xlink:href="#p" />
<use x="336" y="264" xlink:href="#p" />
<use x="336" y="296" xlink:href="#p" />
<use x="336" y="328" xlink:href="#p" />
<use x="336" y="336" xlink:href="#p" />
<use x="344" y="32" xlink:href="#p" />
<use x="344" y="80" xlink:href="#p" />
<use x="344" y="96" xlink:href="#p" />
<use x="344" y="104" xlink:href="#p" />
<use x="344" y="120" xlink:href="#p" />
<use x="344" y="128" xlink:href="#p" />
<use x="344" y="160" xlink:href="#p" />
<use x="344" y="168" xlink:href="#p" />
<use x="344" y="192" xlink:href="#p" />
<use x="344" y="216" xlink:href="#p" />
<use x="344" y="240" xlink:href="#p" />
<use x="344" y="264" xlink:href="#p" />
<use x="344" y="288" xlink:href="#p" />
<use x="344" y="296" xlink:href="#p" />
<use x="344" y="328" xlink:href="#p" />
<use x="344" y="336" xlink:href="#p" />
<use x="344" y="344" xlink:href="#p" />
<use x="344" y="352" xlink:href="#p" />
<use x="352" y="32" xlink:href="#p" />
<use x="352" y="40" xlink:href="#p" />
<use x="352" y="48" xlink:href="#p" />
<use x="352" y="56" xlink:href="#p" />
<use x="352" y="64" xlink:href="#p" />
<use x="352" y="72" xlink:href="#p" />
<use x="352" y="80" xlink:href="#p" />
<use x="352" y="104" xlink:href="#p" />
<use x="352" y="112" xlink:href="#p" />
<use x="352" y="128" xlink:href="#p" />
<use x="352" y="136" xlink:href="#p" />
<use x="352" y="144" xlink:href="#p" />
<use x="352" y="168" xlink:href="#p" />
<use x="352" y="176" xlink:href="#p" />
<use x="352" y="200" xlink:href="#p" />
<use x="352" y="208" xlink:href="#p" />
<use x="352" y="216" xlink:href="#p" />
<use x="352" y="232" xlink:href="#p" />
<use x="352" y="240" xlink:href="#p" />
<use x="352" y="248" xlink:href="#p" />
<use x="352" y="256" xlink:href="#p" />
<use x="352" y="264" xlink:href="#p" />
<use x="352" y="272" xlink:href="#p" />
<use x="352" y="288" xlink:href="#p" />
<use x="352" y="296" xlink:href="#p" />
<use x="352" y="304" xlink:href="#p" />
<use x="352" y="328" xlink:href="#p" />
<use x="352" y="336" xlink:href="#p" />
<use x="352" y="344" xlink:href="#p" />
</g>
</svg>